<?xml version="1.0" encoding="UTF-8" standalone="no"?>
<!-- Created with Inkscape (http://www.inkscape.org/) -->

<svg
   xmlns:dc="http://purl.org/dc/elements/1.1/"
   xmlns:cc="http://creativecommons.org/ns#"
   xmlns:rdf="http://www.w3.org/1999/02/22-rdf-syntax-ns#"
   xmlns:svg="http://www.w3.org/2000/svg"
   xmlns="http://www.w3.org/2000/svg"
   xmlns:sodipodi="http://sodipodi.sourceforge.net/DTD/sodipodi-0.dtd"
   xmlns:inkscape="http://www.inkscape.org/namespaces/inkscape"
   width="210mm"
   height="297mm"
   viewBox="0 0 744.09448819 1052.3622047"
   id="svg2"
   version="1.1"
   inkscape:version="0.91 r13725"
   sodipodi:docname="ration.svg"
   inkscape:export-filename="/home/sergiopinto/Desktop/pdi-relatorio/figures/ration.svg.png"
   inkscape:export-xdpi="90"
   inkscape:export-ydpi="90">
  <defs
     id="defs4" />
  <sodipodi:namedview
     id="base"
     pagecolor="#ffffff"
     bordercolor="#666666"
     borderopacity="1.0"
     inkscape:pageopacity="0.0"
     inkscape:pageshadow="2"
     inkscape:zoom="1.979899"
     inkscape:cx="266.05235"
     inkscape:cy="875.1929"
     inkscape:document-units="px"
     inkscape:current-layer="layer1"
     showgrid="true"
     inkscape:snap-grids="true"
     inkscape:snap-to-guides="true"
     showguides="false"
     inkscape:snap-text-baseline="false"
     inkscape:window-width="1920"
     inkscape:window-height="1056"
     inkscape:window-x="1366"
     inkscape:window-y="24"
     inkscape:window-maximized="1">
    <inkscape:grid
       type="xygrid"
       id="grid3355" />
  </sodipodi:namedview>
  <metadata
     id="metadata7">
    <rdf:RDF>
      <cc:Work
         rdf:about="">
        <dc:format>image/svg+xml</dc:format>
        <dc:type
           rdf:resource="http://purl.org/dc/dcmitype/StillImage" />
        <dc:title></dc:title>
      </cc:Work>
    </rdf:RDF>
  </metadata>
  <g
     inkscape:label="Layer 1"
     inkscape:groupmode="layer"
     id="layer1"
     style="display:inline">
    <rect
       style="fill:#0000ff;fill-rule:evenodd;stroke:#000000;stroke-width:1px;stroke-linecap:butt;stroke-linejoin:miter;stroke-opacity:1"
       id="rect3336"
       width="270"
       height="140"
       x="70.896309"
       y="63.444141" />
    <rect
       style="fill:#0000ff;fill-rule:evenodd;stroke:#000000;stroke-width:1px;stroke-linecap:butt;stroke-linejoin:miter;stroke-opacity:1"
       id="rect3336-3"
       width="270"
       height="140"
       x="386.29987"
       y="63.357491" />
    <path
       style="fill:#a0a0a0;stroke:none;stroke-width:1px;stroke-linecap:butt;stroke-linejoin:miter;stroke-opacity:1"
       d="m 71.38923,133.3792 0,-69.447992 134.35029,0 134.35029,0 0,69.447992 0,69.44798 -134.35029,0 -134.35029,0 0,-69.44798 z"
       id="path3357"
       inkscape:connector-curvature="0" />
    <path
       style="fill:#f9f9f9;stroke:none;stroke-width:1px;stroke-linecap:butt;stroke-linejoin:miter;stroke-opacity:1"
       d="m 387.0619,133.3792 0,-69.447992 134.35029,0 134.35029,0 0,69.447992 0,69.44798 -134.35029,0 -134.35029,0 0,-69.44798 z"
       id="path3359"
       inkscape:connector-curvature="0" />
    <path
       style="fill:#f2f2f2;stroke:none;stroke-width:1px;stroke-linecap:butt;stroke-linejoin:miter;stroke-opacity:1"
       d="m 71.38923,133.3792 0,-69.447992 134.35029,0 134.35029,0 0,69.447992 0,69.44798 -134.35029,0 -134.35029,0 0,-69.44798 z"
       id="path3363"
       inkscape:connector-curvature="0" />
    <path
       style="fill:none;fill-rule:evenodd;stroke:#000000;stroke-width:1px;stroke-linecap:butt;stroke-linejoin:miter;stroke-opacity:1"
       d="m 265,202.3622 0,-45 45,0 0,45 30,-25"
       id="path3367"
       inkscape:connector-curvature="0" />
    <path
       style="fill:none;fill-rule:evenodd;stroke:#000000;stroke-width:1px;stroke-linecap:butt;stroke-linejoin:miter;stroke-opacity:1"
       d="m 310,157.3622 30,-20"
       id="path3369"
       inkscape:connector-curvature="0" />
    <path
       style="fill:none;fill-rule:evenodd;stroke:#000000;stroke-width:1px;stroke-linecap:butt;stroke-linejoin:miter;stroke-opacity:1"
       d="m 265,157.3622 25,-35 20,35"
       id="path3371"
       inkscape:connector-curvature="0" />
    <path
       style="fill:none;fill-rule:evenodd;stroke:#000000;stroke-width:1px;stroke-linecap:butt;stroke-linejoin:miter;stroke-opacity:1"
       d="m 290,122.3622 35,-20 15,15"
       id="path3373"
       inkscape:connector-curvature="0" />
    <path
       style="fill:none;fill-rule:evenodd;stroke:#000000;stroke-width:1px;stroke-linecap:butt;stroke-linejoin:miter;stroke-opacity:1"
       d="m 290,202.3622 0,-15 10,0 0,15"
       id="path3375"
       inkscape:connector-curvature="0" />
    <path
       style="fill:none;fill-rule:evenodd;stroke:#000000;stroke-width:1px;stroke-linecap:butt;stroke-linejoin:miter;stroke-opacity:1"
       d="m 535,122.3622 30,-44.999995 5,-10 35,54.999995 50,-34.999995"
       id="path3425"
       inkscape:connector-curvature="0" />
    <path
       style="fill:none;fill-rule:evenodd;stroke:#000000;stroke-width:1px;stroke-linecap:butt;stroke-linejoin:miter;stroke-opacity:1"
       d="m 535,202.3622 0,-80 70,0 0,80 50,-30"
       id="path3429"
       inkscape:connector-curvature="0" />
    <path
       style="fill:none;fill-rule:evenodd;stroke:#000000;stroke-width:1px;stroke-linecap:butt;stroke-linejoin:miter;stroke-opacity:1"
       d="m 570,67.362205 10,-5"
       id="path3431"
       inkscape:connector-curvature="0" />
    <path
       style="fill:none;fill-rule:evenodd;stroke:#000000;stroke-width:1px;stroke-linecap:butt;stroke-linejoin:miter;stroke-opacity:1"
       d="m 590,202.3622 0,-25 -20,0 0,25"
       id="path3433"
       inkscape:connector-curvature="0" />
    <path
       style="fill:#a0a0a0;stroke:none;stroke-width:1px;stroke-linecap:butt;stroke-linejoin:miter;stroke-opacity:1"
       d="m 71.38923,133.3792 0,-69.447992 134.35029,0 134.35029,0 0,26.131164 0,26.131168 -7.20366,-7.19081 c -3.96201,-3.95494 -7.45888,-7.1908 -7.77082,-7.1908 -0.31194,0 -8.44443,4.50399 -18.07221,10.00888 l -17.50504,10.00888 -12.60485,17.64128 -12.60486,17.64128 0,22.60493 c 0,19.75655 0.0955,22.60493 0.75761,22.60493 0.66196,0 0.75761,-2.80598 0.75761,-22.22336 l 0,-22.22336 21.71828,0 21.71828,0 0,22.4759 0,22.47589 -4.41941,5.1e-4 -4.41942,5e-4 0.15039,-8.08192 0.15038,-8.08153 -5.85661,0 -5.85661,0 0.15039,8.08192 0.15038,8.08192 -108.9702,-5e-4 -108.97021,-9e-4 0,-69.44798 z"
       id="path3441"
       inkscape:connector-curvature="0" />
    <path
       style="fill:#a0a0a0;stroke:none;stroke-width:1px;stroke-linecap:butt;stroke-linejoin:miter;stroke-opacity:1"
       d="m 71.38923,133.3792 0,-69.447992 134.35029,0 134.35029,0 0,26.0488 0,26.048802 -7.33322,-6.98217 c -4.03326,-3.8402 -7.49935,-7.03779 -7.70241,-7.10577 -0.20306,-0.068 -8.28817,4.39449 -17.96692,9.91658 l -17.59772,10.04017 -12.58445,17.61009 -12.58445,17.61007 0.13013,22.47589 c 0.0843,14.56046 0.30801,22.4759 0.63521,22.4759 0.32702,0 0.55146,-7.79013 0.63665,-22.09709 l 0.13158,-22.09709 21.71297,0 21.71297,0 0,22.4759 0,22.47589 -4.41941,5.1e-4 -4.41942,5e-4 0.15039,-8.08192 0.15038,-8.08153 -5.85661,0 -5.85661,0 0.15039,8.08192 0.15038,8.08192 -108.9702,-5e-4 -108.97021,-9e-4 0,-69.44798 z"
       id="path3443"
       inkscape:connector-curvature="0" />
    <path
       style="fill:#a0a0a0;stroke:none;stroke-width:1px;stroke-linecap:butt;stroke-linejoin:miter;stroke-opacity:1"
       d="m 266.71367,156.2339 c 0.26878,-0.34724 5.55808,-7.74875 11.75401,-16.44781 9.02655,-12.67324 11.3862,-15.68446 11.87362,-15.15229 0.49746,0.54315 15.78983,27.15339 17.86967,31.09502 l 0.59965,1.13642 -21.29282,0 c -16.95817,0 -21.19333,-0.12852 -20.80413,-0.63134 z"
       id="path3445"
       inkscape:connector-curvature="0" />
    <path
       style="fill:#a0a0a0;stroke:none;stroke-width:1px;stroke-linecap:butt;stroke-linejoin:miter;stroke-opacity:1"
       d="m 266.67297,156.2339 c 0.21116,-0.34724 5.48703,-7.74778 11.72415,-16.44563 9.08211,-12.66528 11.4615,-15.68246 11.94926,-15.15229 0.52079,0.56608 16.20409,27.84042 17.87901,31.09284 l 0.58523,1.13642 -21.26078,0 c -16.87667,0 -21.18162,-0.13019 -20.87687,-0.63134 z"
       id="path3447"
       inkscape:connector-curvature="0" />
    <path
       style="fill:#a0a0a0;stroke:none;stroke-width:1px;stroke-linecap:butt;stroke-linejoin:miter;stroke-opacity:1"
       d="m 71.38923,133.3792 0,-69.447992 134.35029,0 134.35029,0 0,26.110507 0,26.110505 -1.88738,-1.74057 c -1.03805,-0.95732 -4.34839,-4.12707 -7.3563,-7.04388 -3.00791,-2.91682 -5.54803,-5.37818 -5.64471,-5.4697 -0.14635,-0.13852 -14.44156,7.85026 -31.70463,17.7179 l -3.91407,2.2373 -12.62718,17.68868 -12.62717,17.68867 0.0374,20.14663 c 0.0206,11.08065 0.20015,21.16941 0.39902,22.41948 0.35065,2.20416 0.37242,2.15225 0.72018,-1.71771 0.19723,-2.1948 0.35859,-12.13849 0.35859,-22.09709 l 10e-6,-18.10654 21.71828,0 21.71828,0 0,22.4759 0,22.47589 -4.41941,5.1e-4 -4.41942,5e-4 0.15039,-8.08192 0.15038,-8.08192 -5.91043,0 -5.91043,0 0.30056,8.08122 0.30055,8.08122 -109.06655,0 -109.06656,3.9e-4 0,-69.44798 z"
       id="path3449"
       inkscape:connector-curvature="0" />
    <path
       style="fill:#a0a0a0;stroke:none;stroke-width:1px;stroke-linecap:butt;stroke-linejoin:miter;stroke-opacity:1"
       d="m 71.38923,133.3792 0,-69.447992 134.35029,0 134.35029,0 0,26.011428 c 0,14.306284 -0.16762,26.011424 -0.37249,26.011424 -0.20487,0 -3.56151,-3.18332 -7.45919,-7.07405 l -7.08671,-7.07406 -8.3576,4.67494 c -4.59668,2.57122 -12.56794,7.06143 -17.71391,9.97825 l -9.35631,5.3033 -12.70762,17.77565 -12.70761,17.77565 0.0548,19.09492 c 0.0302,10.50221 0.20495,20.45862 0.38844,22.12537 0.30695,2.78828 0.36311,2.52967 0.70279,-3.23602 0.20305,-3.44656 0.36918,-13.27661 0.36918,-21.84455 l 0,-15.57807 21.71828,0 21.71828,0 0,22.4759 0,22.47589 -4.41941,5.1e-4 -4.41942,5e-4 0.15039,-8.08192 0.15038,-8.08192 -5.88157,0 -5.88157,0 0.36622,8.08122 0.36622,8.08122 -109.16108,0 -109.16108,3.9e-4 0,-69.44798 z"
       id="path3451"
       inkscape:connector-curvature="0" />
    <path
       style="fill:#a0a0a0;stroke:none;stroke-width:1px;stroke-linecap:butt;stroke-linejoin:miter;stroke-opacity:1"
       d="m 71.38923,133.3792 0,-69.447992 134.35029,0 134.35029,0 0,26.011428 c 0,14.306284 -0.16762,26.011424 -0.37249,26.011424 -0.20487,0 -3.56222,-3.18404 -7.46079,-7.07564 l -7.08829,-7.07565 -9.83808,5.55124 c -5.41094,3.05318 -13.38442,7.54411 -17.71882,9.97984 l -7.88075,4.42859 -12.70111,17.77565 -12.70111,17.77565 0.0501,17.32715 c 0.0276,9.52994 0.20065,19.25907 0.38461,21.6203 0.33355,4.28119 0.33552,4.27147 0.70749,-3.48957 0.20517,-4.28049 0.37302,-13.88325 0.37302,-21.33947 l 0,-13.55676 21.71828,0 21.71828,0 0,22.4759 0,22.47589 -4.43846,0 -4.43847,0 0.20566,-8.08122 0.20567,-8.08122 -5.94359,0 -5.94358,0 0.32437,4.16688 c 0.17841,2.29179 0.32574,5.81469 0.3274,7.82868 0.002,2.10247 0.21811,3.66181 0.50811,3.66181 0.31266,0 0.50507,-2.69374 0.50507,-7.07107 l 0,-7.07107 4.2672,0 4.2672,0 0.15222,7.32439 0.15222,7.32439 -114.02097,-0.001 -114.02097,-5.6e-4 0,-69.44798 z"
       id="path3453"
       inkscape:connector-curvature="0" />
    <path
       style="fill:#a0a0a0;stroke:none;stroke-width:1px;stroke-linecap:butt;stroke-linejoin:miter;stroke-opacity:1"
       d="m 71.38923,133.3792 0,-69.447992 134.35029,0 134.35029,0 0,26.011428 c 0,14.306284 -0.16762,26.011424 -0.37249,26.011424 -0.20487,0 -3.55932,-3.18114 -7.45433,-7.0692 l -7.08184,-7.06921 -14.39022,8.13877 c -7.91462,4.47632 -15.86757,8.9708 -17.67322,9.98774 -3.23896,1.82417 -3.45349,2.08585 -15.9964,19.51229 l -12.71342,17.66333 0.0195,16.16244 c 0.0108,8.88934 0.1637,18.43529 0.33986,21.2132 0.31344,4.94246 0.32838,4.84498 0.69687,-4.54568 0.2071,-5.27805 0.3772,-14.65353 0.37798,-20.8344 l 10e-4,-11.23795 21.71828,0 21.71828,0 0,22.4759 0,22.47589 -4.51577,0 -4.51576,0 0.30055,-8.08122 0.30056,-8.08122 -5.95826,0 -5.95827,0 0.32449,3.10455 c 0.17847,1.7075 0.32449,5.23041 0.32449,7.82868 0,2.81271 0.20436,4.72414 0.50508,4.72414 0.31266,0 0.50507,-2.69374 0.50507,-7.07107 l 0,-7.07107 4.2672,0 4.2672,0 0.15222,7.32439 0.15222,7.32439 -114.02097,-0.001 -114.02097,-5.6e-4 0,-69.44798 z"
       id="path3455"
       inkscape:connector-curvature="0" />
    <path
       style="fill:#f9f9f9;stroke:none;stroke-width:1px;stroke-linecap:butt;stroke-linejoin:miter;stroke-opacity:1"
       d="m 71.38923,133.3792 0,-69.447992 134.35029,0 134.35029,0 0,26.011428 c 0,14.306284 -0.16762,26.011424 -0.37249,26.011424 -0.20487,0 -3.55731,-3.17837 -7.44988,-7.06306 l -7.07738,-7.06306 -17.42513,9.84967 c -9.58383,5.41732 -17.94062,10.47079 -18.57065,11.22994 -0.63003,0.75915 -6.4826,8.82966 -13.00571,17.93446 l -11.8602,16.55419 0.0685,14.25546 c 0.0377,7.84051 0.20813,16.98288 0.37881,20.31638 0.30923,6.03969 0.31164,6.022 0.68789,-5.05076 0.20766,-6.11142 0.37813,-15.14597 0.37881,-20.07678 l 0.001,-8.96511 21.71828,0 21.71828,0 0,22.4759 0,22.47589 -4.56118,0 -4.56118,0 0.34549,-8.08122 0.34549,-8.08122 -5.95449,0 -5.95448,0 0.32119,2.34334 c 0.17665,1.28884 0.32119,4.82515 0.32119,7.85849 0,3.54815 0.18014,5.40382 0.50508,5.203 0.29618,-0.18305 0.50507,-3.11988 0.50507,-7.10088 l 0,-6.78872 4.2672,0 4.2672,0 0.15222,7.32439 0.15222,7.32439 -114.02097,-0.001 -114.02097,-5.6e-4 0,-69.44798 z"
       id="path3457"
       inkscape:connector-curvature="0" />
    <path
       style="fill:#a0a0a0;stroke:none;stroke-width:1px;stroke-linecap:butt;stroke-linejoin:miter;stroke-opacity:1"
       d="m 266.67427,156.2339 c 0.21187,-0.34724 5.48278,-7.75273 11.71314,-16.45663 9.26398,-12.94193 11.44407,-15.70267 11.96539,-15.15229 0.60523,0.63895 18.42228,31.62976 18.42228,32.04352 0,0.10821 -9.55936,0.19674 -21.24301,0.19674 -16.86314,0 -21.16359,-0.13017 -20.8578,-0.63134 z"
       id="path3459"
       inkscape:connector-curvature="0" />
    <path
       style="fill:#a0a0a0;stroke:none;stroke-width:1px;stroke-linecap:butt;stroke-linejoin:miter;stroke-opacity:1"
       d="m 266.6623,156.2339 c 0.40435,-0.68396 16.48703,-23.20527 20.57782,-28.81605 2.02868,-2.78247 2.62427,-3.3108 3.13155,-2.77792 0.65369,0.68669 18.40341,31.51989 18.40341,31.96873 0,0.14112 -9.55936,0.25658 -21.24301,0.25658 -16.85676,0 -21.16595,-0.13036 -20.86977,-0.63134 z"
       id="path3461"
       inkscape:connector-curvature="0" />
    <path
       style="fill:#a0a0a0;stroke:none;stroke-width:1px;stroke-linecap:butt;stroke-linejoin:miter;stroke-opacity:1"
       d="m 267.14138,155.47628 c 1.70447,-2.60477 21.52055,-30.17586 22.18862,-30.87211 0.55923,-0.58283 0.86288,-0.38085 1.89828,1.26269 1.84849,2.93421 17.5468,30.43164 17.5468,30.73528 0,0.14471 -9.57208,0.2631 -21.27129,0.2631 l -21.2713,0 0.90889,-1.38896 z"
       id="path3463"
       inkscape:connector-curvature="0" />
    <path
       style="fill:none;fill-rule:evenodd;stroke:#000000;stroke-width:1px;stroke-linecap:butt;stroke-linejoin:miter;stroke-opacity:1"
       d="m 265,192.3622 0,10"
       id="path3465"
       inkscape:connector-curvature="0" />
    <path
       style="fill:none;fill-rule:evenodd;stroke:#000000;stroke-width:1px;stroke-linecap:butt;stroke-linejoin:miter;stroke-opacity:1"
       d="m 290,202.3622 0,0 0,-5"
       id="path3467"
       inkscape:connector-curvature="0" />
    <path
       style="fill:none;fill-rule:evenodd;stroke:#000000;stroke-width:1px;stroke-linecap:butt;stroke-linejoin:miter;stroke-opacity:1"
       d="m 300,202.3622 0,-5"
       id="path3469"
       inkscape:connector-curvature="0" />
    <path
       style="fill:none;fill-rule:evenodd;stroke:#000000;stroke-width:1px;stroke-linecap:butt;stroke-linejoin:miter;stroke-opacity:1"
       d="m 265,202.3622 0,-30"
       id="path3471"
       inkscape:connector-curvature="0" />
    <path
       style="fill:#a0a0a0;stroke:none;stroke-width:1px;stroke-linecap:butt;stroke-linejoin:miter;stroke-opacity:1"
       d="m 266.64857,156.2339 c 0.5674,-0.9964 20.77521,-29.25235 22.10534,-30.90921 l 1.19499,-1.48851 1.25838,1.99359 c 1.74396,2.76285 17.0939,29.51887 17.41491,30.35541 0.2162,0.56341 -3.39226,0.68006 -21.03609,0.68006 -16.89266,0 -21.22269,-0.13056 -20.93753,-0.63134 z"
       id="path3473"
       inkscape:connector-curvature="0" />
    <path
       style="fill:#f9f9f9;fill-opacity:1;stroke:none;stroke-width:1px;stroke-linecap:butt;stroke-linejoin:miter;stroke-opacity:1"
       d="m 265.72757,180.35144 0.13651,-22.47605 21.70804,0 21.70803,0 0,22.4759 0,22.47589 -4.41941,3.5e-4 -4.41942,3.4e-4 0.13159,-8.08156 0.13158,-8.08157 -5.68742,2.8e-4 -5.68743,2.7e-4 0,8.08078 0,8.08078 -11.86929,3.1e-4 -11.86929,3.2e-4 0.13651,-22.47604 z"
       id="path3475"
       inkscape:connector-curvature="0" />
    <path
       style="fill:#f9f9f9;fill-opacity:1;stroke:none;stroke-width:1px;stroke-linecap:butt;stroke-linejoin:miter;stroke-opacity:1"
       d="m 267.12664,155.47628 c 1.93251,-3.00195 22.03432,-30.92813 22.44567,-31.18236 0.24074,-0.14878 0.87547,0.35719 1.41052,1.12439 1.15194,1.65174 17.20338,29.63072 17.61616,30.70642 0.24691,0.64343 -2.51174,0.74051 -21.04117,0.74051 l -21.32533,0 0.89415,-1.38896 z"
       id="path3491"
       inkscape:connector-curvature="0" />
    <path
       style="fill:none;fill-rule:evenodd;stroke:#ff0000;stroke-width:1px;stroke-linecap:butt;stroke-linejoin:miter;stroke-opacity:1"
       d="m 265,157.3622 45,0"
       id="path3501"
       inkscape:connector-curvature="0" />
    <path
       style="opacity:0;fill:#ff0000;fill-rule:evenodd;stroke:#000000;stroke-width:1px;stroke-linecap:butt;stroke-linejoin:miter;stroke-opacity:1"
       d="m 264.49492,157.10966 45,0"
       id="path3503"
       inkscape:connector-curvature="0" />
    <path
       style="fill:none;fill-rule:evenodd;stroke:#ff0000;stroke-width:1px;stroke-linecap:butt;stroke-linejoin:miter;stroke-opacity:1"
       d="m 535,122.3622 70,0"
       id="path4313"
       inkscape:connector-curvature="0" />
    <path
       style="display:inline;fill:none;fill-rule:evenodd;stroke:#0000ff;stroke-width:1px;stroke-linecap:butt;stroke-linejoin:miter;stroke-opacity:1"
       d="m 271.31472,151.69974 -10,10"
       id="path3437-5"
       inkscape:connector-curvature="0" />
    <path
       style="display:inline;fill:#000000;fill-rule:evenodd;stroke:#0000ff;stroke-width:1px;stroke-linecap:butt;stroke-linejoin:miter;stroke-opacity:1"
       d="m 270.80964,162.20482 -10,-10"
       id="path3439-6"
       inkscape:connector-curvature="0"
       inkscape:transform-center-x="170.71578"
       inkscape:transform-center-y="94.954339" />
    <path
       style="display:inline;fill:none;fill-rule:evenodd;stroke:#0000ff;stroke-width:1px;stroke-linecap:butt;stroke-linejoin:miter;stroke-opacity:1"
       d="m 315.15229,152.26067 -10,10"
       id="path3437-2"
       inkscape:connector-curvature="0" />
    <path
       style="display:inline;fill:none;fill-rule:evenodd;stroke:#0000ff;stroke-width:1px;stroke-linecap:butt;stroke-linejoin:miter;stroke-opacity:1"
       d="m 314.64721,162.76575 -10,-10"
       id="path3439-9"
       inkscape:connector-curvature="0"
       inkscape:transform-center-x="170.71578"
       inkscape:transform-center-y="94.954339" />
    <path
       style="display:inline;fill:none;fill-rule:evenodd;stroke:#0000ff;stroke-width:1px;stroke-linecap:butt;stroke-linejoin:miter;stroke-opacity:1"
       d="m 610.36299,116.84947 -10,10"
       id="path3437-2-1"
       inkscape:connector-curvature="0" />
    <path
       style="display:inline;fill:none;fill-rule:evenodd;stroke:#0000ff;stroke-width:1px;stroke-linecap:butt;stroke-linejoin:miter;stroke-opacity:1"
       d="m 609.85791,127.35455 -10,-10"
       id="path3439-9-2"
       inkscape:connector-curvature="0"
       inkscape:transform-center-x="170.71578"
       inkscape:transform-center-y="94.954339" />
    <path
       style="display:inline;fill:none;fill-rule:evenodd;stroke:#0000ff;stroke-width:1px;stroke-linecap:butt;stroke-linejoin:miter;stroke-opacity:1"
       d="m 540.70813,116.84947 -10,10"
       id="path3437-2-7"
       inkscape:connector-curvature="0" />
    <path
       style="display:inline;fill:none;fill-rule:evenodd;stroke:#0000ff;stroke-width:1px;stroke-linecap:butt;stroke-linejoin:miter;stroke-opacity:1"
       d="m 540.20305,127.35455 -10,-10"
       id="path3439-9-0"
       inkscape:connector-curvature="0"
       inkscape:transform-center-x="170.71578"
       inkscape:transform-center-y="94.954339" />
    <text
       xml:space="preserve"
       style="font-style:normal;font-weight:normal;font-size:11.83845139px;line-height:125%;font-family:sans-serif;letter-spacing:0px;word-spacing:0px;display:inline;fill:#000000;fill-opacity:1;stroke:none;stroke-width:1px;stroke-linecap:butt;stroke-linejoin:miter;stroke-opacity:1"
       x="300.95575"
       y="156.76546"
       id="text4397-9"
       sodipodi:linespacing="125%"
       transform="scale(0.93583224,1.0685676)"><tspan
         sodipodi:role="line"
         id="tspan4399-2"
         x="300.95575"
         y="156.76546">r1</tspan></text>
    <text
       xml:space="preserve"
       style="font-style:normal;font-weight:normal;font-size:14.03134441px;line-height:125%;font-family:sans-serif;letter-spacing:0px;word-spacing:0px;fill:#000000;fill-opacity:1;stroke:none;stroke-width:1px;stroke-linecap:butt;stroke-linejoin:miter;stroke-opacity:1"
       x="565.41132"
       y="133.74794"
       id="text4437"
       sodipodi:linespacing="125%"
       transform="scale(0.99531566,1.0047064)"><tspan
         sodipodi:role="line"
         id="tspan4439"
         x="565.41132"
         y="133.74794">r2</tspan></text>
    <text
       xml:space="preserve"
       style="font-style:normal;font-weight:normal;font-size:40px;line-height:125%;font-family:sans-serif;letter-spacing:0px;word-spacing:0px;fill:#000000;fill-opacity:1;stroke:none;stroke-width:1px;stroke-linecap:butt;stroke-linejoin:miter;stroke-opacity:1"
       x="100"
       y="332.36221"
       id="text4444"
       sodipodi:linespacing="125%"><tspan
         sodipodi:role="line"
         id="tspan4446"
         x="100"
         y="332.36221" /></text>
    <text
       xml:space="preserve"
       style="font-style:normal;font-weight:normal;font-size:16.76907921px;line-height:125%;font-family:sans-serif;letter-spacing:0px;word-spacing:0px;fill:#000000;fill-opacity:1;stroke:none;stroke-width:1px;stroke-linecap:butt;stroke-linejoin:miter;stroke-opacity:1"
       x="143.6127"
       y="60.669407"
       id="text4448"
       sodipodi:linespacing="125%"
       transform="scale(1.0485378,0.95370906)"><tspan
         sodipodi:role="line"
         id="tspan4450"
         x="143.6127"
         y="60.669407">Imagem k-1</tspan></text>
    <text
       xml:space="preserve"
       style="font-style:normal;font-weight:normal;font-size:16.76907921px;line-height:125%;font-family:sans-serif;letter-spacing:0px;word-spacing:0px;display:inline;fill:#000000;fill-opacity:1;stroke:none;stroke-width:1px;stroke-linecap:butt;stroke-linejoin:miter;stroke-opacity:1"
       x="456.22113"
       y="60.246311"
       id="text4448-7"
       sodipodi:linespacing="125%"
       transform="scale(1.0485378,0.95370906)"><tspan
         sodipodi:role="line"
         id="tspan4450-7"
         x="456.22113"
         y="60.246311">Imagem k</tspan></text>
    <text
       xml:space="preserve"
       style="font-style:normal;font-weight:normal;line-height:107.00000525%;font-family:sans-serif;letter-spacing:0px;word-spacing:0px;baseline-shift:baseline;fill:#000000;fill-opacity:1;stroke:none;stroke-width:1px;stroke-linecap:butt;stroke-linejoin:miter;stroke-opacity:1"
       x="165"
       y="247.3622"
       id="text4489"
       sodipodi:linespacing="107.00001%"><tspan
         sodipodi:role="line"
         id="tspan4491"
         x="165"
         y="247.3622" /></text>
    <text
       xml:space="preserve"
       style="font-style:normal;font-weight:normal;font-size:11.29607296px;line-height:125%;font-family:sans-serif;letter-spacing:0px;word-spacing:0px;fill:#000000;fill-opacity:1;stroke:none;stroke-width:1px;stroke-linecap:butt;stroke-linejoin:miter;stroke-opacity:1"
       x="245.99104"
       y="152.01807"
       id="text4547"
       sodipodi:linespacing="125%"
       transform="scale(0.96140431,1.0401451)"><tspan
         sodipodi:role="line"
         id="tspan4549"
         x="245.99104"
         y="152.01807">x<tspan
   style="font-size:7.34244728px;baseline-shift:sub"
   id="tspan4551">1,k-1</tspan></tspan></text>
    <text
       xml:space="preserve"
       style="font-style:normal;font-weight:normal;font-size:11.29607296px;line-height:125%;font-family:sans-serif;letter-spacing:0px;word-spacing:0px;display:inline;fill:#000000;fill-opacity:1;stroke:none;stroke-width:1px;stroke-linecap:butt;stroke-linejoin:miter;stroke-opacity:1"
       x="326.73694"
       y="155.36098"
       id="text4547-2"
       sodipodi:linespacing="125%"
       transform="scale(0.96140432,1.0401451)"><tspan
         sodipodi:role="line"
         id="tspan4549-8"
         x="326.73694"
         y="155.36098">x<tspan
   style="font-size:64.99999762%;baseline-shift:sub"
   id="tspan4574">2</tspan><tspan
   style="font-size:7.34244728px;baseline-shift:sub"
   id="tspan4551-9">,k-1</tspan></tspan></text>
    <text
       xml:space="preserve"
       style="font-style:normal;font-weight:normal;font-size:11.29607296px;line-height:125%;font-family:sans-serif;letter-spacing:0px;word-spacing:0px;display:inline;fill:#000000;fill-opacity:1;stroke:none;stroke-width:1px;stroke-linecap:butt;stroke-linejoin:miter;stroke-opacity:1"
       x="634.8443"
       y="122.36332"
       id="text4547-2-3"
       sodipodi:linespacing="125%"
       transform="scale(0.96140432,1.0401451)"><tspan
         sodipodi:role="line"
         id="tspan4549-8-6"
         x="634.8443"
         y="122.36332">x<tspan
   style="font-size:64.99999762%;baseline-shift:sub"
   id="tspan4574-8">2</tspan><tspan
   style="font-size:7.34244728px;baseline-shift:sub"
   id="tspan4551-9-0">,k</tspan></tspan></text>
    <text
       xml:space="preserve"
       style="font-style:normal;font-weight:normal;font-size:11.29607296px;line-height:125%;font-family:sans-serif;letter-spacing:0px;word-spacing:0px;display:inline;fill:#000000;fill-opacity:1;stroke:none;stroke-width:1px;stroke-linecap:butt;stroke-linejoin:miter;stroke-opacity:1"
       x="533.29816"
       y="117.73925"
       id="text4547-2-3-2"
       sodipodi:linespacing="125%"
       transform="scale(0.96140432,1.0401451)"><tspan
         sodipodi:role="line"
         id="tspan4549-8-6-1"
         x="533.29816"
         y="117.73925">x<tspan
   style="font-size:64.99999762%;baseline-shift:sub"
   id="tspan4624">1</tspan><tspan
   style="font-size:7.34244728px;baseline-shift:sub"
   id="tspan4551-9-0-5">,k</tspan></tspan></text>
    <path
       style="opacity:0;fill:#f9f9f9;fill-opacity:0;stroke:#0000ff;stroke-width:0.50507629;stroke-opacity:1"
       d="m 387.46596,133.3792 0,-69.447992 93.81792,0.04227 93.81792,0.04227 -2.84197,1.34669 c -2.80287,1.32816 -2.88102,1.424892 -5.67998,7.03009 -1.7009,3.406214 -8.5326,14.233037 -17.05056,27.021581 -7.8169,11.736001 -14.30022,21.437641 -14.40739,21.559221 -0.10716,0.12157 -1.16464,-0.73075 -2.34995,-1.89404 -1.1853,-1.16329 -2.31696,-2.11507 -2.51479,-2.11507 -0.91119,0 -0.17642,1.41119 1.76444,3.38879 l 2.12414,2.16433 -1.8716,1.91669 c -1.02937,1.05418 -1.87159,2.07757 -1.87159,2.2742 0,0.7762 1.27899,0.28894 2.62401,-0.99967 l 1.4166,-1.35719 0,38.98537 c 0,34.31694 0.0907,38.98537 0.75761,38.98537 0.66689,0 0.75762,-4.66894 0.75762,-38.98996 l 0,-38.98995 1.66554,1.61431 c 1.553,1.50523 2.88014,2.08435 2.88014,1.2568 0,-0.19664 -0.84162,-1.21942 -1.87027,-2.27285 l -1.87027,-1.91533 33.28408,0 33.28408,0 -1.61431,1.66555 c -0.88787,0.91604 -1.61431,1.82518 -1.61431,2.0203 0,0.77366 1.28095,0.28432 2.62402,-1.00242 l 1.41659,-1.35719 0,39.23791 0,39.2379 -16.79378,3.9e-4 -16.79379,3.9e-4 0.14346,-12.37476 0.14346,-12.37475 9.32672,0 9.32672,0 0,12.12183 c 0,7.7445 0.18239,12.12183 0.50508,12.12183 0.32351,0 0.50507,-4.62987 0.50507,-12.87945 l 0,-12.87944 -10.62296,0 -10.62296,0 0.14263,13.13233 0.14263,13.13234 -91.04,-3.5e-4 -91.04,-3.6e-4 0,-69.44798 z m 178.29193,-2.02475 c 0.23953,-2.87023 0.32559,-3.0344 1.67151,-3.18873 1.01736,-0.11666 1.36926,-0.40257 1.24334,-1.01016 -0.10653,-0.51398 -0.5655,-0.78995 -1.16644,-0.70134 -0.54494,0.0803 -1.61583,0.15237 -2.37976,0.16004 l -1.38896,0.0139 0,4.04387 c 0,3.57848 0.10172,4.02456 0.88388,3.87612 0.68892,-0.13074 0.93959,-0.83521 1.13643,-3.19376 l 0,2e-5 z m 10.6066,2.52982 c 0,-0.56604 -0.60065,-0.75761 -2.37535,-0.75761 l -2.37535,0 1.81056,-1.89404 c 0.9958,-1.04172 2.06474,-2.39054 2.37542,-2.99739 0.77684,-1.51742 -0.0754,-3.57917 -1.74121,-4.21252 -1.623,-0.61707 -4.4563,0.0446 -4.65716,1.08757 -0.1141,0.5925 0.38028,0.75143 2.25754,0.72571 3.38193,-0.0463 3.42899,1.03195 0.19927,4.56578 -3.49681,3.82607 -3.40201,4.24012 0.97074,4.24012 2.80599,0 3.53554,-0.15634 3.53554,-0.75762 z m -51.25316,-8.8769 c 0.30454,-0.95954 -0.004,-1.93436 -0.45441,-1.43507 -0.53509,0.59331 -0.82685,2.48329 -0.38336,2.48329 0.27779,0 0.65479,-0.4717 0.83777,-1.04822 z m -1.77985,-0.46701 c 0,-0.27779 -0.34093,-0.50508 -0.75762,-0.50508 -0.57241,0 -0.75761,-0.61731 -0.75761,-2.52538 0,-1.86209 -0.19116,-2.52538 -0.7278,-2.52538 -0.94037,0 -1.65492,1.14189 -0.87685,1.40124 0.72041,0.24014 0.80395,3.64952 0.0894,3.64952 -0.27779,0 -0.50508,0.22729 -0.50508,0.50508 0,0.27779 0.7955,0.50508 1.76777,0.50508 0.97227,0 1.76777,-0.22729 1.76777,-0.50508 z m 4.04061,-0.33082 c 0,-0.75086 0.10307,-0.74261 1.01325,0.0811 1.31845,1.19318 1.9505,0.56113 0.75732,-0.75733 -0.88494,-0.97784 -0.88504,-1.04854 -0.003,-2.0234 0.72568,-0.80187 0.76265,-1.01015 0.1793,-1.01015 -0.40419,0 -1.00763,0.27274 -1.34098,0.60609 -0.4714,0.4714 -0.60609,0.30305 -0.60609,-0.75761 0,-0.75004 -0.22728,-1.36371 -0.50507,-1.36371 -0.2806,0 -0.50508,1.34687 -0.50508,3.03046 0,1.68359 0.22448,3.03046 0.50508,3.03046 0.27779,0 0.50507,-0.37615 0.50507,-0.8359 l 2.3e-4,0 z m -12.14567,-2.79563 0.89571,-1.10614 0.59199,1.10614 c 0.32559,0.60838 0.92491,1.10615 1.33183,1.10615 0.97946,0 0.91832,-0.4961 -0.24829,-2.01449 -0.95265,-1.2399 -0.95194,-1.2791 0.0524,-2.90418 0.84536,-1.36783 0.88743,-1.64733 0.24793,-1.64733 -0.42359,0 -1.10411,0.47677 -1.51225,1.05948 l -0.74209,1.05948 -0.56702,-1.05948 c -0.5065,-0.94642 -2.39811,-1.60795 -1.94631,-0.68067 0.10151,0.20835 0.48966,0.98585 0.86256,1.72779 0.60535,1.20444 0.55934,1.51562 -0.4294,2.90419 -0.95388,1.33959 -0.99132,1.55521 -0.27009,1.55521 0.46052,0 1.24038,-0.49777 1.73301,-1.10615 z"
       id="path5295"
       inkscape:connector-curvature="0" />
    <path
       style="opacity:0;fill:#f9f9f9;fill-opacity:0;stroke:#0000ff;stroke-width:0.50507629;stroke-opacity:1"
       d="m 387.46596,133.3792 0,-69.447992 93.81792,0.04227 93.81792,0.04227 -2.84197,1.34669 c -2.80287,1.32816 -2.88102,1.424892 -5.67998,7.03009 -1.7009,3.406214 -8.5326,14.233037 -17.05056,27.021581 -7.8169,11.736001 -14.30022,21.437641 -14.40739,21.559221 -0.10716,0.12157 -1.16464,-0.73075 -2.34995,-1.89404 -1.1853,-1.16329 -2.31696,-2.11507 -2.51479,-2.11507 -0.91119,0 -0.17642,1.41119 1.76444,3.38879 l 2.12414,2.16433 -1.8716,1.91669 c -1.02937,1.05418 -1.87159,2.07757 -1.87159,2.2742 0,0.7762 1.27899,0.28894 2.62401,-0.99967 l 1.4166,-1.35719 0,38.98537 c 0,34.31694 0.0907,38.98537 0.75761,38.98537 0.66689,0 0.75762,-4.66894 0.75762,-38.98996 l 0,-38.98995 1.66554,1.61431 c 1.553,1.50523 2.88014,2.08435 2.88014,1.2568 0,-0.19664 -0.84162,-1.21942 -1.87027,-2.27285 l -1.87027,-1.91533 33.28408,0 33.28408,0 -1.61431,1.66555 c -0.88787,0.91604 -1.61431,1.82518 -1.61431,2.0203 0,0.77366 1.28095,0.28432 2.62402,-1.00242 l 1.41659,-1.35719 0,39.23791 0,39.2379 -16.79378,3.9e-4 -16.79379,3.9e-4 0.14346,-12.37476 0.14346,-12.37475 9.32672,0 9.32672,0 0,12.12183 c 0,7.7445 0.18239,12.12183 0.50508,12.12183 0.32351,0 0.50507,-4.62987 0.50507,-12.87945 l 0,-12.87944 -10.62296,0 -10.62296,0 0.14263,13.13233 0.14263,13.13234 -91.04,-3.5e-4 -91.04,-3.6e-4 0,-69.44798 z m 178.29193,-2.02475 c 0.23953,-2.87023 0.32559,-3.0344 1.67151,-3.18873 1.01736,-0.11666 1.36926,-0.40257 1.24334,-1.01016 -0.10653,-0.51398 -0.5655,-0.78995 -1.16644,-0.70134 -0.54494,0.0803 -1.61583,0.15237 -2.37976,0.16004 l -1.38896,0.0139 0,4.04387 c 0,3.57848 0.10172,4.02456 0.88388,3.87612 0.68892,-0.13074 0.93959,-0.83521 1.13643,-3.19376 l 0,2e-5 z m 10.6066,2.52982 c 0,-0.56604 -0.60065,-0.75761 -2.37535,-0.75761 l -2.37535,0 1.81056,-1.89404 c 0.9958,-1.04172 2.06474,-2.39054 2.37542,-2.99739 0.77684,-1.51742 -0.0754,-3.57917 -1.74121,-4.21252 -1.623,-0.61707 -4.4563,0.0446 -4.65716,1.08757 -0.1141,0.5925 0.38028,0.75143 2.25754,0.72571 3.38193,-0.0463 3.42899,1.03195 0.19927,4.56578 -3.49681,3.82607 -3.40201,4.24012 0.97074,4.24012 2.80599,0 3.53554,-0.15634 3.53554,-0.75762 z m -51.25316,-8.8769 c 0.30454,-0.95954 -0.004,-1.93436 -0.45441,-1.43507 -0.53509,0.59331 -0.82685,2.48329 -0.38336,2.48329 0.27779,0 0.65479,-0.4717 0.83777,-1.04822 z m -1.77985,-0.46701 c 0,-0.27779 -0.34093,-0.50508 -0.75762,-0.50508 -0.57241,0 -0.75761,-0.61731 -0.75761,-2.52538 0,-1.86209 -0.19116,-2.52538 -0.7278,-2.52538 -0.94037,0 -1.65492,1.14189 -0.87685,1.40124 0.72041,0.24014 0.80395,3.64952 0.0894,3.64952 -0.27779,0 -0.50508,0.22729 -0.50508,0.50508 0,0.27779 0.7955,0.50508 1.76777,0.50508 0.97227,0 1.76777,-0.22729 1.76777,-0.50508 z m 4.04061,-0.33082 c 0,-0.75086 0.10307,-0.74261 1.01325,0.0811 1.31845,1.19318 1.9505,0.56113 0.75732,-0.75733 -0.88494,-0.97784 -0.88504,-1.04854 -0.003,-2.0234 0.72568,-0.80187 0.76265,-1.01015 0.1793,-1.01015 -0.40419,0 -1.00763,0.27274 -1.34098,0.60609 -0.4714,0.4714 -0.60609,0.30305 -0.60609,-0.75761 0,-0.75004 -0.22728,-1.36371 -0.50507,-1.36371 -0.2806,0 -0.50508,1.34687 -0.50508,3.03046 0,1.68359 0.22448,3.03046 0.50508,3.03046 0.27779,0 0.50507,-0.37615 0.50507,-0.8359 l 2.3e-4,0 z m -12.14567,-2.79563 0.89571,-1.10614 0.59199,1.10614 c 0.32559,0.60838 0.92491,1.10615 1.33183,1.10615 0.97946,0 0.91832,-0.4961 -0.24829,-2.01449 -0.95265,-1.2399 -0.95194,-1.2791 0.0524,-2.90418 0.84536,-1.36783 0.88743,-1.64733 0.24793,-1.64733 -0.42359,0 -1.10411,0.47677 -1.51225,1.05948 l -0.74209,1.05948 -0.56702,-1.05948 c -0.5065,-0.94642 -2.39811,-1.60795 -1.94631,-0.68067 0.10151,0.20835 0.48966,0.98585 0.86256,1.72779 0.60535,1.20444 0.55934,1.51562 -0.4294,2.90419 -0.95388,1.33959 -0.99132,1.55521 -0.27009,1.55521 0.46052,0 1.24038,-0.49777 1.73301,-1.10615 z"
       id="path5297"
       inkscape:connector-curvature="0" />
  </g>
</svg>
